<svg xmlns="http://www.w3.org/2000/svg" viewBox="0 0 204.22 497"><defs><style>.cls-1{fill:#085504;}</style></defs><title>Asset 1</title><g id="Layer_2" data-name="Layer 2"><g id="svg2"><path id="rect2901" class="cls-1" d="M83.55,31.4c.87-41.53,45.23-42.18,45.69,0V497H83.55Z"/><path id="path3676" class="cls-1" d="M146.54,89.86c.63-20.71,32.61-21,32.94,0v65.25c-.93,17.6-20.11,38.13-51,26.46l-.13-36.35c3.54,8.94,18,9.36,18.17-3.13V89.86Z"/><path id="path3678" class="cls-1" d="M168,235.75c.67-20.71,35.88-21,36.23,0V301c.52,13.57-33.65,49.41-76.51,34.46l.12-50.91c7.06,28.88,40.5,18.49,40.17-.57V235.75Z"/><path id="path3680" class="cls-1" d="M43,164.4c-.76-27.83-42.61-28.27-43,0v83.68c-1.1,23.53,50.48,66.08,84.61,52.31L84.49,230c-3.2,32.75-42.6,28.63-41.47-.76Z"/></g></g></svg>